<svg width="500" height="500" viewBox="0 0 500 500" fill="none" xmlns="http://www.w3.org/2000/svg">
<path d="M174.124 378.032C121.181 385.254 90.5727 326.555 82.7962 296.776L94.716 296.967C99.5244 321.195 125.95 377.669 176.149 366.142C177.72 365.781 180.092 370.317 181.591 369.898L186.117 373.639L189.755 375.531C184.142 377.915 180.808 377.12 174.124 378.032Z" fill="#057E2C"/>
<path d="M250.511 247.189L249.908 284.782C249.284 288.291 249.205 288.653 248.107 293.008C244.058 292.943 238.512 295.605 236.619 299.243C241.119 278.607 241.62 259.304 239.553 244.262L250.511 247.189Z" fill="#057E2C"/>
<path d="M222.517 232.983C224.833 230.122 226.15 229.431 227.483 226.335C222.629 225.364 219.372 225.44 217.725 227.403C217.164 228.914 218.994 229.471 222.517 232.983Z" fill="#03AA39"/>
<path d="M141.972 119.084C133.993 127.101 132.277 128.056 128.892 126.364C119.179 121.505 113.691 120.689 104.834 122.788C89.8612 126.334 79.5006 138.261 77.3483 154.423C76.8936 157.841 75.2406 159.232 70.3105 160.347C59.8852 162.702 52.9181 166.963 48.2534 173.836C42.1796 182.786 41.1469 192.159 44.9925 203.421L48.1811 212.757L42.4245 218.628C26.9373 234.426 31.5518 260.187 51.4467 268.975C55.6723 270.842 57.5322 273.132 58.4079 277.543C60.6279 288.72 64.1516 293.289 74.4613 298.372C81.4678 301.824 96.7191 301.528 100.158 300.723C97.6055 296.59 100.665 299.082 105.215 295.296C115.715 286.551 119.027 269.909 112.594 258.222L109.252 252.154L114.299 250.162C117.074 249.067 121.958 245.345 125.152 241.893L130.959 235.614L136.355 239.738C142.889 244.733 153.81 247.606 161.45 246.342C164.546 245.828 170.303 242.973 174.243 239.997C178.184 237.019 181.925 235.36 182.557 236.311C185.972 241.447 198.455 245.437 205.598 245.552C211.634 245.648 217.871 238.72 222.517 232.983C218.994 229.471 217.164 228.914 217.725 227.403C219.372 225.44 222.629 225.364 227.483 226.335C229.6 221.417 230.784 216.701 229.035 213.828C226.528 209.71 221.818 210.01 221.089 214.617C219.61 223.952 203.033 240.099 192.368 233.36C186.472 229.633 186.372 229.347 187.681 219.993C189.258 208.738 187.385 202.579 179.935 194.528C175.862 190.129 172.417 188.399 166.113 187.584C156.62 186.36 148.719 189.387 148.64 194.279C148.598 196.893 149.918 197.284 156.602 196.64C169.127 195.43 179.651 204.985 179.452 217.387C179.352 223.613 171.269 232.388 163.357 234.859C155.354 237.359 148.793 236.094 140.164 230.389C134.315 226.518 133.617 225.199 133.661 218.083C133.716 209.542 129.096 200.89 122.533 197.241C115.97 193.592 108.914 193.209 105.693 196.327C101.929 199.974 103.335 202.64 109.073 202.732C114.763 202.823 121.814 209.611 124.16 217.259C129.105 233.37 108.621 248.539 93.1518 240.222C87.6251 237.25 87.4193 237.274 87.3611 240.898C87.3267 243.043 91.5578 248.909 97.2301 254.584C106.34 263.694 107.149 265.187 107.028 272.682C106.708 292.641 79.3686 300.044 69.5655 282.825C65.6317 275.916 65.8796 272.242 70.3713 270.896C72.7269 270.189 74.0835 268.181 74.1292 265.331C74.2072 260.466 72.4834 259.644 69.0904 262.93C65.8764 266.042 54.0473 261.799 48.2336 255.449C43.808 250.614 42.2792 244.038 43.1873 233.734C43.3667 231.697 46.0515 227.05 49.153 223.408C54.3428 217.311 55.1424 216.974 59.1996 219.161C65.2099 222.403 79.183 220.716 80.0334 216.647C80.552 214.16 79.1466 213.61 72.2755 213.602C65.0577 213.596 63.158 212.757 58.7027 207.601C52.2124 200.093 51.177 192.716 55.3579 183.764C61.7687 170.044 76.1011 165.279 86.9438 173.265C91.9836 176.976 92.5804 177.048 95.4424 174.276C98.3043 171.505 98.1402 170.983 93.1111 166.839C88.5599 163.089 87.7067 161.046 87.7235 153.935C87.748 142.801 93.9486 135.556 105.92 132.672C112.786 131.018 115.978 131.106 121.753 133.115C128.82 135.574 129.002 135.862 129.647 145.52C130.322 155.62 135.766 164.64 141.238 164.728C145.892 164.802 146.037 159.307 141.506 154.627C137.428 150.416 136.827 147.296 138.253 137.766C138.921 133.312 148.288 124.65 154.554 122.694C163.023 120.048 172.156 122.019 178.999 127.967C183.699 132.053 184.459 133.983 184.338 141.541C184.236 147.882 185.004 150.675 187.08 151.51C191.335 153.222 191.489 153.103 191.57 148.045C191.716 138.97 200.111 131.591 211.106 130.874C219.385 130.332 223.013 131.419 228.308 136.022C233.076 140.167 233.854 142.1 233.735 149.523C233.62 156.712 232.667 159.048 228.131 163.257C223.849 167.229 221.623 168.046 217.846 167.034C213.593 165.892 213.086 166.236 213.553 169.945C214.658 178.746 234.706 174.394 239.349 164.346C242.156 158.267 248.096 156.801 258.645 159.582C268.557 162.197 273.512 167.879 274.686 177.979C275.508 185.05 274.951 186.931 270.539 192.023C266.979 196.132 263.867 197.878 260.209 197.819C256.833 197.765 254.958 198.689 254.93 200.422C254.866 204.414 261.621 207.422 267.823 206.164C272.383 205.238 274.15 206.027 278.643 210.995C283.066 215.885 283.989 218.493 283.872 225.783C283.747 233.558 274.721 238.105 269.745 241.529C266.163 243.994 259.004 243.437 256.111 242.836C253.114 242.213 243.811 237.602 227.483 226.335C226.15 229.431 224.833 230.122 222.517 232.983C231.808 242.246 247.526 255.34 269.576 252.037C277.729 248.518 292.643 235.177 292.796 224.958C292.902 217.889 289.726 206.719 283.164 201.385C279.143 198.116 279.022 197.538 281.624 193.948C285.255 188.938 285.5 173.904 282.065 166.991C276.781 156.359 260.141 147.067 249.609 148.868C243.489 149.915 243.363 149.803 242.307 142.443C239.65 123.942 213.305 113.59 198.175 125.104C191.73 130.008 190.899 129.868 188.362 123.453C185.665 116.636 172.019 110.193 159.863 109.998C151.788 109.869 150.486 110.53 141.972 119.084Z" fill="#03AA39"/>
<path fill-rule="evenodd" clip-rule="evenodd" d="M180.885 310.489C170.668 318.471 160.853 325.753 159.072 326.671C152.539 330.044 155.182 336.25 167.67 346.859C174.252 352.451 182.122 359.24 185.157 361.943C188.193 364.647 192.994 368.279 195.826 370.014L200.973 373.167L201.102 365.131C201.227 357.356 200.818 356.763 188.598 346.942C181.65 341.359 175.96 335.866 175.954 334.736C175.948 333.606 181.797 327.964 188.951 322.196C201.359 312.193 201.965 311.344 202.086 303.824C202.155 299.488 201.592 295.948 200.836 295.958C200.08 295.968 191.101 302.506 180.885 310.489ZM269.112 299.148C267.077 300.229 263.108 303.185 260.294 305.715L255.176 310.316L255.27 304.471C255.354 299.236 254.806 298.618 250.012 298.541C238.474 298.356 238.882 296.961 238.209 338.902L237.594 377.216L246.763 377.363L255.932 377.51L256.335 354.13C256.591 339.215 257.583 329.172 259.073 326.397C262.285 320.408 273.131 315.022 279.384 316.31C284.371 317.336 284.413 317.265 284.573 307.304L284.734 297.264L278.773 297.223C275.495 297.202 271.147 298.068 269.112 299.148ZM341.102 301.705C338.321 303.426 334.471 306.591 332.549 308.736C328.464 313.296 326.683 312.2 326.795 305.199C326.873 300.359 326.594 300.21 319.066 301.048C314.771 301.526 311.194 302.01 311.119 302.122C311.044 302.233 311.068 319.454 311.175 340.39L311.367 378.455L320.326 378.598L329.284 378.742L329.666 355.361C329.992 335.413 330.587 331.127 333.719 326.171C337.571 320.073 349.06 315.562 354.827 317.881C357.302 318.878 357.781 317.468 357.92 308.778L358.085 298.496L352.123 298.534C348.843 298.555 343.884 299.981 341.102 301.705ZM421.037 308.858C419.548 316.142 419.261 315.718 432.87 326.237C443.001 334.069 449.14 339.601 449.116 340.877C449.103 341.544 445.552 344.301 441.222 347.005C425.449 356.854 421.269 361.838 421.123 370.963C421.05 375.516 421.397 379.247 421.892 379.255C422.389 379.263 424.684 377.726 426.991 375.841C429.299 373.956 436.619 368.31 443.257 363.295C466.378 345.828 467.398 344.861 467.47 340.372C467.541 335.996 465.697 334.378 431.844 309.092L422.426 302.057L421.037 308.858Z" fill="#03AA39"/>
<path d="M403.055 286.322L387.088 338.343L371.121 390.364L383.957 390.57L414.975 286.513L403.055 286.322Z" fill="#03AA39"/>
</svg>
