<svg width="1580" height="390" viewBox="0 0 1580 390" fill="none" xmlns="http://www.w3.org/2000/svg">
<path fill-rule="evenodd" clip-rule="evenodd" d="M934.015 259.761C929.988 262.076 924.432 266.305 921.671 269.156C915.804 275.218 913.172 273.819 913.172 264.641C913.172 258.297 912.761 258.107 901.77 259.365C895.5 260.081 890.279 260.79 890.172 260.939C890.065 261.086 890.505 283.654 891.151 311.09L892.326 360.971H905.432H918.537L918.548 330.321C918.556 304.171 919.326 298.541 923.79 291.981C929.282 283.909 945.98 277.755 954.468 280.673C958.111 281.928 958.779 280.069 958.779 268.677L960 255.374L950.06 255.374C945.263 255.47 938.044 257.444 934.015 259.761Z" fill="#03AA39"/>
<path d="M394.747 361.985C321.323 372.76 277.473 295.052 266 255.463H282.571C289.76 287.551 333.067 360.756 402 345.231C405.528 347.541 410.971 351.076 415.211 353.762C416.526 354.595 417.726 355.346 418.716 355.953L421.5 357.5C421.5 357.511 421.49 357.516 421.469 357.513C413.726 360.801 404.005 360.627 394.747 361.985Z" fill="#057E2C"/>
<path d="M498 185.673V235.873C497.211 240.571 497.929 247.662 496.5 253.5C485.793 253 483.256 255.602 480.707 260.5C486.501 232.854 485.913 202.037 482.703 182L498 185.673Z" fill="#057E2C"/>
<path d="M458.743 169.86C462.064 166.062 463.974 165.128 465.851 161.042C458.728 159.872 453.967 160.04 451.604 162.648C450.819 164.64 453.508 165.331 458.743 169.86Z" fill="#03AA39"/>
<path d="M338.267 22.284C326.784 32.9573 324.297 34.2458 319.307 32.0991C304.987 25.9355 296.941 24.9811 284.037 27.9187C262.22 32.8804 247.347 48.7294 244.578 69.9559C243.993 74.444 241.608 76.3022 234.424 77.8671C219.231 81.1725 209.141 86.9035 202.479 96.0095C193.806 107.866 192.516 120.171 198.404 134.849L203.287 147.018L195.005 154.833C172.725 175.862 180.078 209.527 209.382 220.626C215.606 222.984 218.38 225.946 219.765 231.708C223.274 246.309 228.535 252.223 243.733 258.668C254.062 263.045 276.361 262.336 281.373 261.208C277.542 255.845 282.075 259.047 288.64 253.99C303.793 242.309 308.246 220.429 298.564 205.248L293.534 197.365L300.868 194.649C304.901 193.156 311.956 188.175 316.547 183.584L324.893 175.233L332.882 180.524C342.557 186.932 358.597 190.469 369.741 188.651C374.256 187.913 382.611 184.05 388.304 180.067C393.997 176.081 399.429 173.829 400.376 175.062C405.492 181.721 423.843 186.687 434.292 186.687C443.124 186.687 452.083 177.476 458.743 169.86C453.508 165.331 450.819 164.64 451.604 162.648C453.967 160.04 458.728 159.872 465.851 161.042C468.832 154.553 470.452 148.348 467.827 144.619C464.063 139.275 457.182 139.768 456.224 145.821C454.279 158.086 430.413 179.596 414.657 170.987C405.946 166.228 405.793 165.855 407.488 153.569C409.53 138.785 406.646 130.753 395.561 120.359C389.5 114.678 384.422 112.483 375.182 111.548C361.269 110.144 349.784 114.277 349.784 120.69C349.784 124.116 351.724 124.602 361.484 123.616C379.775 121.767 395.392 134.068 395.392 150.326C395.392 158.487 383.775 170.158 372.26 173.562C360.614 177.007 350.989 175.487 338.235 168.192C329.588 163.242 328.536 161.528 328.434 152.201C328.314 141.006 321.354 129.765 311.669 125.121C301.985 120.476 291.656 120.123 287.017 124.277C281.598 129.135 283.717 132.599 292.112 132.599C300.437 132.599 310.908 141.347 314.519 151.321C322.13 172.331 292.525 192.642 269.705 182.067C261.552 178.288 261.252 178.324 261.252 183.074C261.252 185.887 267.578 193.486 276.007 200.803C289.544 212.551 290.762 214.491 290.762 224.316C290.762 250.48 250.95 260.757 236.208 238.395C230.292 229.424 230.568 224.604 237.106 222.746C240.535 221.77 242.472 219.109 242.472 215.373C242.472 208.996 239.931 207.955 235.046 212.332C230.418 216.479 213.018 211.166 204.366 202.967C197.779 196.724 195.389 188.137 196.475 174.615C196.69 171.942 200.508 165.795 204.958 160.956C212.406 152.857 213.568 152.398 219.553 155.179C228.419 159.302 248.817 156.797 249.965 151.446C250.665 148.177 248.597 147.484 238.547 147.619C227.99 147.763 225.192 146.703 218.555 140.039C208.886 130.337 207.199 120.69 213.103 108.87C222.158 90.7545 243.009 84.2087 259.054 94.4469C266.513 99.2042 267.387 99.286 271.508 95.5936C275.629 91.9012 275.377 91.2209 267.924 85.8962C261.179 81.0764 259.883 78.4176 259.741 69.0977C259.516 54.506 268.415 44.8807 285.856 40.8493C295.86 38.5368 300.53 38.5849 309.024 41.097C319.417 44.1716 319.691 44.5442 320.861 57.1887C322.084 70.4102 330.259 82.1173 338.264 82.1173C345.073 82.1173 345.156 74.9127 338.42 68.8741C332.357 63.4413 331.404 59.3643 333.266 46.8447C334.138 40.9936 347.635 29.4452 356.754 26.7504C369.079 23.1037 382.482 25.4956 392.631 33.1472C399.601 38.4022 400.757 40.9167 400.757 50.8232C400.757 59.1359 401.946 62.7802 405.001 63.8307C411.266 65.9846 411.488 65.826 411.488 59.196C411.488 47.299 423.593 37.4526 439.658 36.2819C451.754 35.3973 457.085 36.7459 464.938 42.6667C472.01 47.9986 473.193 50.5155 473.193 60.2465C473.193 69.6698 471.854 72.7516 465.319 78.3624C459.148 83.6582 455.913 84.776 450.365 83.5284C444.117 82.1221 443.384 82.5836 444.154 87.4347C445.976 98.9446 475.197 92.8195 481.751 79.5547C485.713 71.5281 494.368 69.4823 509.861 72.9055C524.421 76.1243 531.801 83.4659 533.754 96.6778C535.122 105.928 534.353 108.404 528.018 115.171C522.908 120.63 518.398 122.984 513.046 122.984C508.107 122.984 505.386 124.234 505.386 126.505C505.386 131.739 515.337 135.539 524.378 133.76C531.026 132.45 533.628 133.448 540.316 139.864C546.9 146.179 548.311 149.578 548.311 159.134C548.311 169.326 535.216 175.475 528.018 180.067C522.838 183.372 512.354 182.793 508.109 182.067C503.71 181.313 489.996 175.466 465.851 161.042C463.974 165.128 462.064 166.062 458.743 169.86C472.55 181.804 495.846 198.634 528.018 193.842C539.86 189.058 561.36 171.26 561.344 157.866C561.333 148.599 556.427 134.027 546.704 127.174C540.746 122.974 540.555 122.219 544.276 117.46C549.47 110.818 549.475 91.1103 544.29 82.1221C536.311 68.2996 511.755 56.4724 496.394 59.0542C487.468 60.5542 487.28 60.41 485.563 50.7871C481.244 26.5966 442.469 13.5842 420.61 28.9909C411.298 35.5535 410.08 35.3877 406.219 27.0341C402.115 18.1565 382.004 10 364.22 10C352.408 10 350.519 10.8943 338.267 22.284Z" fill="#03AA39"/>
<path fill-rule="evenodd" clip-rule="evenodd" d="M1330.35 271.134C1328.34 280.711 1327.91 280.161 1348.06 293.661C1363.06 303.712 1372.17 310.832 1372.17 312.505C1372.16 313.38 1367.03 317.068 1360.76 320.703C1337.93 333.941 1331.93 340.561 1331.93 352.523C1331.93 358.492 1332.53 363.375 1333.25 363.375C1333.98 363.375 1337.3 361.312 1340.63 358.793C1343.96 356.273 1354.53 348.72 1364.12 342.009C1397.53 318.631 1399 317.342 1399 311.457C1399 305.722 1396.27 303.64 1346.16 271.214L1332.22 262.192L1330.35 271.134Z" fill="#03AA39"/>
<path d="M1303.52 241.977L1259.25 379H1278.03L1320.96 241.977H1303.52Z" fill="#03AA39"/>
<path fill-rule="evenodd" clip-rule="evenodd" d="M1011.43 258.73C989.519 265.728 972.193 288.541 972.193 310.39C972.193 323.326 981.559 344.922 990.211 351.939C1004.92 363.865 1039.06 367.243 1057.9 358.634C1068.77 353.663 1080.27 342.6 1078.77 338.557C1077.6 335.427 1055.36 329.59 1055.36 332.412C1055.36 333.614 1051.44 336.742 1046.64 339.362C1029.83 348.547 1011.81 343.975 1004.11 328.566L999.274 318.902L1043.41 318.244L1087.55 317.585V310.2C1087.55 306.138 1085.72 297.161 1083.48 290.25C1074.71 263.225 1042.07 248.944 1011.43 258.73ZM1176.97 259.857C1163.84 265.197 1157.36 273.053 1155.43 285.966C1152.83 303.296 1165.82 315.058 1192.18 319.26C1218.62 323.477 1227.34 329.669 1220.01 339.037C1216.76 343.196 1213.27 344.143 1201.18 344.143C1188.19 344.143 1185.49 343.278 1179.58 337.251C1173.32 330.852 1172.09 330.53 1162.39 332.737C1150.68 335.4 1150.01 336.859 1156.45 345.677C1165.16 357.581 1179.42 363.375 1200 363.375C1210.27 363.375 1222.06 362.233 1226.21 360.836C1236.89 357.247 1246.14 347.59 1248.75 337.311C1253.44 318.859 1236.14 303.666 1204.8 298.721C1187.41 295.976 1181.45 292.866 1181.45 286.529C1181.45 274.363 1203.93 270.312 1215.23 280.44C1222.5 286.952 1228.13 287.793 1239.2 284.022L1246.33 281.594L1240.86 273.805C1229.12 257.103 1199.59 250.655 1176.97 259.857ZM1108.44 275.021C1107.81 276.68 1107.5 287.772 1107.75 299.671C1108.01 311.57 1108.39 330.229 1108.62 341.138L1109.02 360.971H1122.49H1135.96L1135.24 317.099L1134.5 273.228L1122.05 272.617C1113.95 272.218 1109.2 273.057 1108.44 275.021ZM1013.78 281.12C1008.51 285.166 999.021 297.048 999.021 299.587C999.021 300.294 1012.9 300.873 1029.87 300.873C1047.64 300.873 1060.73 299.902 1060.73 298.582C1060.73 292.786 1053.63 283.368 1046.92 280.259C1036.94 275.632 1020.35 276.062 1013.78 281.12Z" fill="#03AA39"/>
<ellipse cx="1122.58" cy="245.298" rx="16.1021" ry="14.4543" fill="#099C41"/>
<path fill-rule="evenodd" clip-rule="evenodd" d="M757.569 287.651V360.971H772.325H787.08V345.879C787.08 331.008 788.744 327.814 799.638 321.78C801.326 320.847 807.51 326.027 814.166 333.951C820.543 341.54 827.923 349.845 830.566 352.41C833.208 354.973 835.371 357.947 835.371 359.021C835.371 360.093 843.827 360.971 854.161 360.971H872.951L848.795 334.145C835.51 319.393 824.639 306.267 824.639 304.979C824.639 303.693 826.753 300.887 829.334 298.748C840.886 289.171 867.194 260.478 865.673 259.112C864.745 258.283 857.957 257.603 850.59 257.603H837.192L812.226 281.041L787.263 304.479L787.171 259.406L787.08 214.332H772.325H757.569V287.651ZM676.777 256.244C675.87 257.074 672.321 258.237 668.889 258.831C652.68 261.627 633.189 283.673 629.187 303.734C626.576 316.813 634.067 338.564 644.406 347.932C660.28 362.312 691.484 367.783 712.587 359.882C728.92 353.766 746.1 331.225 734.728 330.83C733.274 330.78 728.617 329.915 724.381 328.907C718.234 327.448 715.903 328.071 712.842 331.987C705.051 341.951 688.549 346.155 677.085 341.095C662.896 334.831 658.274 327.148 658.4 310.046C658.51 295.428 662.276 287.981 672.643 281.887C683.025 275.786 702.83 278.651 710.599 287.38C716.05 293.505 716.646 293.62 726.704 290.5C732.448 288.719 737.51 286.267 737.958 285.053C739.839 279.933 727.737 267.509 715.849 262.35C703.339 256.925 680.018 253.278 676.777 256.244ZM579.611 259.206C578.627 260.086 577.822 283.344 577.822 310.89V360.971H591.236H604.65V309.287V257.603H593.025C586.63 257.603 580.593 258.324 579.611 259.206Z" fill="#03AA39"/>
<ellipse cx="594" cy="231.5" rx="16" ry="14.5" fill="#099C41"/>
<path fill-rule="evenodd" clip-rule="evenodd" d="M525.507 257.997C522.556 259.456 516.82 263.413 512.764 266.788L505.386 272.925V265.264C505.386 258.401 504.571 257.603 497.558 257.603C480.678 257.603 481.241 255.766 481.241 310.746V360.971H494.655H508.069L508.109 330.321C508.133 310.77 509.349 297.587 511.463 293.918C516.021 286.002 531.758 278.716 540.933 280.271C548.252 281.512 548.311 281.418 548.311 268.36V255.199L539.592 255.271C534.798 255.312 528.458 256.538 525.507 257.997Z" fill="#03AA39"/>
<path fill-rule="evenodd" clip-rule="evenodd" d="M396.733 274.714C381.978 285.389 367.794 295.14 365.21 296.38C355.734 300.938 359.745 309.015 378.259 322.657C388.016 329.847 399.687 338.578 404.188 342.057C408.693 345.538 415.8 350.196 419.982 352.41L427.585 356.434V345.901C427.585 335.708 426.973 334.939 408.87 322.325C398.576 315.155 390.125 308.075 390.09 306.594C390.055 305.113 398.477 297.596 408.806 289.887C426.719 276.517 427.585 275.392 427.585 265.533C427.585 259.85 426.678 255.223 425.573 255.252C424.468 255.28 411.488 264.038 396.733 274.714Z" fill="#03AA39"/>
</svg>
