<svg width="1580" height="390" viewBox="0 0 1580 390" fill="none" xmlns="http://www.w3.org/2000/svg">
<path fill-rule="evenodd" clip-rule="evenodd" d="M957.015 267.761C952.988 270.076 947.432 274.305 944.671 277.156C938.804 283.218 936.172 281.819 936.172 272.641C936.172 266.297 935.761 266.107 924.77 267.365C918.5 268.081 913.279 268.79 913.172 268.939C913.065 269.086 913.505 291.654 914.151 319.09L915.326 368.971H928.432H941.537L941.548 338.321C941.556 312.171 942.326 306.541 946.79 299.981C952.282 291.909 968.98 285.755 977.468 288.673C981.111 289.928 981.779 288.069 981.779 276.677L983 263.374L973.06 263.374C968.263 263.47 961.044 265.444 957.015 267.761Z" fill="#03AA39"/>
<path d="M611 193.673L624 199V237C620.8 233.8 614.46 234.667 611.689 235.5C613.077 219.974 612.906 205.571 611 193.673Z" fill="#057E2C"/>
<path d="M392 263.463H408.571C414.847 291.476 447.15 351.208 501.5 355.5V369C438.848 366.413 402.502 299.703 392 263.463Z" fill="#057E2C"/>
<path d="M584.743 177.86C588.064 174.062 589.974 173.128 591.851 169.042C584.728 167.872 579.967 168.04 577.604 170.648C576.819 172.64 579.508 173.331 584.743 177.86Z" fill="#03AA39"/>
<path d="M464.267 30.284C452.784 40.9573 450.297 42.2458 445.307 40.0991C430.987 33.9355 422.941 32.9811 410.037 35.9187C388.22 40.8804 373.347 56.7294 370.578 77.9559C369.993 82.444 367.608 84.3022 360.424 85.8671C345.231 89.1725 335.141 94.9035 328.479 104.009C319.806 115.866 318.516 128.171 324.404 142.849L329.287 155.018L321.005 162.833C298.725 183.862 306.078 217.527 335.382 228.626C341.606 230.984 344.38 233.946 345.765 239.708C349.274 254.309 354.535 260.223 369.733 266.668C380.062 271.045 402.361 270.336 407.373 269.208C403.542 263.845 408.075 267.047 414.64 261.99C429.793 250.309 434.246 228.429 424.564 213.248L419.534 205.365L426.868 202.649C430.901 201.156 437.956 196.175 442.547 191.584L450.893 183.233L458.882 188.524C468.557 194.932 484.597 198.469 495.741 196.651C500.256 195.913 508.611 192.05 514.304 188.067C519.997 184.081 525.429 181.829 526.376 183.062C531.492 189.721 549.843 194.687 560.292 194.687C569.124 194.687 578.083 185.476 584.743 177.86C579.508 173.331 576.819 172.64 577.604 170.648C579.967 168.04 584.728 167.872 591.851 169.042C594.832 162.553 596.452 156.348 593.827 152.619C590.063 147.275 583.182 147.768 582.224 153.821C580.279 166.086 556.413 187.596 540.657 178.987C531.946 174.228 531.793 173.855 533.488 161.569C535.53 146.785 532.646 138.753 521.561 128.359C515.5 122.678 510.422 120.483 501.182 119.548C487.269 118.144 475.784 122.277 475.784 128.69C475.784 132.116 477.724 132.602 487.484 131.616C505.775 129.767 521.392 142.068 521.392 158.326C521.392 166.487 509.775 178.158 498.26 181.562C486.614 185.007 476.989 183.487 464.235 176.192C455.588 171.242 454.536 169.528 454.434 160.201C454.314 149.006 447.354 137.765 437.669 133.121C427.985 128.476 417.656 128.123 413.017 132.277C407.598 137.135 409.717 140.599 418.112 140.599C426.437 140.599 436.908 149.347 440.519 159.321C448.13 180.331 418.525 200.642 395.705 190.067C387.552 186.288 387.252 186.324 387.252 191.074C387.252 193.887 393.578 201.486 402.007 208.803C415.544 220.551 416.762 222.491 416.762 232.316C416.762 258.48 376.95 268.757 362.208 246.395C356.292 237.424 356.568 232.604 363.106 230.746C366.535 229.77 368.472 227.109 368.472 223.373C368.472 216.996 365.931 215.955 361.046 220.332C356.418 224.479 339.018 219.166 330.366 210.967C323.779 204.724 321.389 196.137 322.475 182.615C322.69 179.942 326.508 173.795 330.958 168.956C338.406 160.857 339.568 160.398 345.553 163.179C354.419 167.302 374.817 164.797 375.965 159.446C376.665 156.177 374.597 155.484 364.547 155.619C353.99 155.763 351.192 154.703 344.555 148.039C334.886 138.337 333.199 128.69 339.103 116.87C348.158 98.7545 369.009 92.2087 385.054 102.447C392.513 107.204 393.387 107.286 397.508 103.594C401.629 99.9012 401.377 99.2209 393.924 93.8962C387.179 89.0764 385.883 86.4176 385.741 77.0977C385.516 62.506 394.415 52.8807 411.856 48.8493C421.86 46.5368 426.53 46.5849 435.024 49.097C445.417 52.1716 445.691 52.5442 446.861 65.1887C448.084 78.4102 456.259 90.1173 464.264 90.1173C471.073 90.1173 471.156 82.9127 464.42 76.8741C458.357 71.4413 457.404 67.3643 459.266 54.8447C460.138 48.9936 473.635 37.4452 482.754 34.7504C495.079 31.1037 508.482 33.4956 518.631 41.1472C525.601 46.4022 526.757 48.9167 526.757 58.8232C526.757 67.1359 527.946 70.7802 531.001 71.8307C537.266 73.9846 537.488 73.826 537.488 67.196C537.488 55.299 549.593 45.4526 565.658 44.2819C577.754 43.3973 583.085 44.7459 590.938 50.6667C598.01 55.9986 599.193 58.5155 599.193 68.2465C599.193 77.6698 597.854 80.7516 591.319 86.3624C585.148 91.6582 581.913 92.776 576.365 91.5284C570.117 90.1221 569.384 90.5836 570.154 95.4347C571.976 106.945 601.197 100.819 607.751 87.5547C611.713 79.5281 620.368 77.4823 635.861 80.9055C650.421 84.1243 657.801 91.4659 659.754 104.678C661.122 113.928 660.353 116.404 654.018 123.171C648.908 128.63 644.398 130.984 639.046 130.984C634.107 130.984 631.386 132.234 631.386 134.505C631.386 139.739 641.337 143.539 650.378 141.76C657.026 140.45 659.628 141.448 666.316 147.864C672.9 154.179 674.311 157.578 674.311 167.134C674.311 177.326 661.216 183.475 654.018 188.067C648.838 191.372 638.354 190.793 634.109 190.067C629.71 189.313 615.996 183.466 591.851 169.042C589.974 173.128 588.064 174.062 584.743 177.86C598.55 189.804 621.846 206.634 654.018 201.842C665.86 197.058 687.36 179.26 687.344 165.866C687.333 156.599 682.427 142.027 672.704 135.174C666.746 130.974 666.555 130.219 670.276 125.46C675.47 118.818 675.475 99.1103 670.29 90.1221C662.311 76.2996 637.755 64.4724 622.394 67.0542C613.468 68.5542 613.28 68.41 611.563 58.7871C607.244 34.5966 568.469 21.5842 546.61 36.9909C537.298 43.5535 536.08 43.3877 532.219 35.0341C528.115 26.1565 508.004 18 490.22 18C478.408 18 476.519 18.8943 464.267 30.284Z" fill="#03AA39"/>
<path fill-rule="evenodd" clip-rule="evenodd" d="M1034.43 266.73C1012.52 273.728 995.193 296.541 995.193 318.39C995.193 331.326 1004.56 352.922 1013.21 359.939C1027.92 371.865 1062.06 375.243 1080.9 366.634C1091.77 361.663 1103.27 350.6 1101.77 346.557C1100.6 343.427 1078.36 337.59 1078.36 340.412C1078.36 341.614 1074.44 344.742 1069.64 347.362C1052.83 356.547 1034.81 351.975 1027.11 336.566L1022.27 326.902L1066.41 326.244L1110.55 325.585V318.2C1110.55 314.138 1108.72 305.161 1106.48 298.25C1097.71 271.225 1065.07 256.944 1034.43 266.73ZM1199.97 267.857C1186.84 273.197 1180.36 281.053 1178.43 293.966C1175.83 311.296 1188.82 323.058 1215.18 327.26C1241.62 331.477 1250.34 337.669 1243.01 347.037C1239.76 351.196 1236.27 352.143 1224.18 352.143C1211.19 352.143 1208.49 351.278 1202.58 345.251C1196.32 338.852 1195.09 338.53 1185.39 340.737C1173.68 343.4 1173.01 344.859 1179.45 353.677C1188.16 365.581 1202.42 371.375 1223 371.375C1233.27 371.375 1245.06 370.233 1249.21 368.836C1259.89 365.247 1269.14 355.59 1271.75 345.311C1276.44 326.859 1259.14 311.666 1227.8 306.721C1210.41 303.976 1204.45 300.866 1204.45 294.529C1204.45 282.363 1226.93 278.312 1238.23 288.44C1245.5 294.952 1251.13 295.793 1262.2 292.022L1269.33 289.594L1263.86 281.805C1252.12 265.103 1222.59 258.655 1199.97 267.857ZM1131.44 283.021C1130.81 284.68 1130.5 295.772 1130.75 307.671C1131.01 319.57 1131.39 338.229 1131.62 349.138L1132.02 368.971H1145.49H1158.96L1158.24 325.099L1157.5 281.228L1145.05 280.617C1136.95 280.218 1132.2 281.057 1131.44 283.021ZM1036.78 289.12C1031.51 293.166 1022.02 305.048 1022.02 307.587C1022.02 308.294 1035.9 308.873 1052.87 308.873C1070.64 308.873 1083.73 307.902 1083.73 306.582C1083.73 300.786 1076.63 291.368 1069.92 288.259C1059.94 283.632 1043.35 284.062 1036.78 289.12Z" fill="#03AA39"/>
<ellipse cx="1144.1" cy="254.454" rx="16.1021" ry="14.4543" fill="#099C41"/>
<path fill-rule="evenodd" clip-rule="evenodd" d="M780.569 295.651V368.971H795.325H810.08V353.879C810.08 339.008 811.744 335.814 822.638 329.78C824.326 328.847 830.51 334.027 837.166 341.951C843.543 349.54 850.923 357.845 853.566 360.41C856.208 362.973 858.371 365.947 858.371 367.021C858.371 368.093 866.827 368.971 877.161 368.971H895.951L871.795 342.145C858.51 327.393 847.639 314.267 847.639 312.979C847.639 311.693 849.753 308.887 852.334 306.748C863.886 297.171 890.194 268.478 888.673 267.112C887.745 266.283 880.957 265.603 873.59 265.603H860.192L835.226 289.041L810.263 312.479L810.171 267.406L810.08 222.332H795.325H780.569V295.651ZM699.777 264.244C698.87 265.074 695.321 266.237 691.889 266.831C675.68 269.627 656.189 291.673 652.187 311.734C649.576 324.813 657.067 346.564 667.406 355.932C683.28 370.312 714.484 375.783 735.587 367.882C751.92 361.766 769.1 339.225 757.728 338.83C756.274 338.78 751.617 337.915 747.38 336.907C741.234 335.448 738.903 336.071 735.842 339.987C728.051 349.951 711.549 354.155 700.085 349.095C685.896 342.831 681.274 335.148 681.4 318.046C681.51 303.428 685.276 295.981 695.643 289.887C706.025 283.786 725.83 286.651 733.599 295.38C739.05 301.505 739.646 301.62 749.704 298.5C755.448 296.719 760.51 294.267 760.958 293.053C762.839 287.933 750.737 275.509 738.849 270.35C726.339 264.925 703.018 261.278 699.777 264.244Z" fill="#03AA39"/>
<path fill-rule="evenodd" clip-rule="evenodd" d="M602.801 282.365C601.81 283.114 601 302.914 601 326.365V369H614.5H628V325V281H616.301C609.864 281 603.789 281.614 602.801 282.365Z" fill="#03AA39"/>
<ellipse cx="614" cy="253.5" rx="16" ry="14.5" fill="#099C41"/>
<path fill-rule="evenodd" clip-rule="evenodd" d="M548.507 265.997C545.556 267.456 539.82 271.413 535.764 274.788L528.386 280.925V273.264C528.386 266.401 527.571 265.603 520.558 265.603C503.678 265.603 504.241 263.766 504.241 318.746V368.971H517.655H531.069L531.109 338.321C531.133 318.77 532.349 305.587 534.463 301.918C539.021 294.002 554.758 286.716 563.933 288.271C571.252 289.512 571.311 289.418 571.311 276.36V263.199L562.592 263.271C557.798 263.312 551.458 264.538 548.507 265.997Z" fill="#03AA39"/>
</svg>
