<svg width="500" height="500" viewBox="0 0 500 500" fill="none" xmlns="http://www.w3.org/2000/svg">
<path d="M272.518 476.775C183.034 490.48 129.584 391.634 115.598 341.277L135.794 341.277C144.601 382.289 190.677 478.931 275.395 457.989C278.046 457.334 280.466 457.163 282.994 456.409L293.157 456.246L299.086 456.15C289.042 463.715 283.815 475.044 272.518 476.775Z" fill="#057E2C"/>
<path d="M398.338 252.502L398.343 316.357C397.529 321.417 397.394 327.494 396.315 333.746L378.768 334.028C383.381 302.748 383.095 269.973 379.695 247.83L398.338 252.502Z" fill="#057E2C"/>
<path d="M350.53 229.14C354.376 224.22 356.587 223.009 358.761 217.715C350.511 216.199 344.997 216.416 342.261 219.796C341.352 222.377 344.467 223.272 350.53 229.14Z" fill="#03AA39"/>
<path d="M210.983 37.9171C197.686 51.7472 194.806 53.4168 189.027 50.6352C172.44 42.6486 163.122 41.412 148.177 45.2184C122.91 51.6475 105.686 72.184 102.482 99.6886C101.805 105.504 99.0428 107.912 90.7221 109.94C73.1268 114.223 61.4415 121.649 53.7275 133.448C43.6834 148.81 42.1902 164.756 49.0118 183.775L54.6681 199.543L45.0772 209.669C19.2748 236.918 27.7949 280.539 61.7351 294.921C68.9438 297.976 72.1569 301.814 73.7608 309.28C77.8264 328.2 83.9201 335.863 101.523 344.214C113.485 349.886 133.969 349.524 139.773 348.063C135.336 341.114 145.93 344.706 153.532 338.152C171.08 323.017 176.235 294.665 165.02 274.995L159.194 264.781L167.688 261.261C172.358 259.327 180.529 252.873 185.845 246.923L195.51 236.102L204.764 242.958C215.969 251.262 234.547 255.844 247.453 253.49C252.683 252.533 262.358 247.528 268.951 242.366C275.544 237.202 281.835 234.283 282.932 235.881C288.858 244.509 310.111 250.945 322.214 250.945C332.442 250.945 342.817 239.01 350.53 229.14C344.467 223.272 341.352 222.377 342.261 219.796C344.997 216.416 350.511 216.199 358.761 217.715C362.213 209.307 364.089 201.266 361.048 196.434C356.688 189.51 348.719 190.148 347.61 197.992C345.359 213.884 317.72 241.756 299.471 230.601C289.382 224.434 289.205 223.951 291.167 208.031C293.53 188.874 290.189 178.467 277.349 164.999C270.33 157.638 264.448 154.794 253.747 153.582C237.633 151.763 224.332 157.118 224.333 165.428C224.333 169.867 226.579 170.496 237.883 169.219C259.067 166.824 277.155 182.763 277.157 203.829C277.158 214.404 263.705 229.527 250.369 233.937C236.882 238.401 225.733 236.432 210.961 226.979C200.947 220.565 199.728 218.344 199.609 206.258C199.468 191.752 191.407 177.187 180.19 171.169C168.973 165.151 157.011 164.693 151.639 170.076C145.363 176.371 147.818 180.86 157.54 180.86C167.181 180.86 179.309 192.195 183.493 205.118C192.31 232.343 158.025 258.66 131.595 244.958C122.152 240.061 121.804 240.108 121.804 246.263C121.804 249.907 129.132 259.754 138.895 269.235C154.575 284.458 155.986 286.972 155.987 299.702C155.989 333.605 109.881 346.921 92.805 317.946C85.9529 306.321 86.2724 300.076 93.8443 297.668C97.815 296.403 100.058 292.955 100.058 288.115C100.057 279.851 97.1145 278.502 91.4569 284.174C86.0976 289.548 65.9442 282.664 55.9229 272.039C48.2943 263.949 45.525 252.823 46.782 235.302C47.0302 231.838 51.451 223.873 56.6052 217.603C65.2298 207.109 66.5751 206.514 73.5074 210.118C83.7768 215.46 107.4 212.214 108.729 205.28C109.54 201.044 107.144 200.147 95.505 200.321C83.2785 200.508 80.0376 199.135 72.3499 190.5C61.1509 177.928 59.1955 165.428 66.033 150.112C76.5177 126.639 100.666 118.157 119.25 131.423C127.889 137.587 128.901 137.693 133.674 132.909C138.446 128.124 138.154 127.243 129.521 120.343C121.71 114.098 120.209 110.653 120.043 98.5766C119.781 79.6691 130.086 67.1971 150.285 61.9734C161.871 58.9769 167.28 59.0392 177.118 62.2943C189.155 66.2782 189.472 66.761 190.828 83.1454C192.246 100.277 201.715 115.447 210.987 115.447C218.872 115.447 218.968 106.111 211.165 98.2869C204.143 91.2472 203.039 85.9643 205.194 69.742C206.204 62.1603 221.834 47.1964 232.395 43.7046C246.669 38.9793 262.192 42.0786 273.947 51.9933C282.02 58.8025 283.359 62.0606 283.361 74.8971C283.361 85.6684 284.738 90.3906 288.277 91.7518C295.533 94.5428 295.791 94.3372 295.79 85.7463C295.789 70.3307 309.807 57.5721 328.412 56.0551C342.422 54.9089 348.596 56.6563 357.691 64.3283C365.882 71.2371 367.253 74.4984 367.254 87.1075C367.255 99.3179 365.705 103.311 358.136 110.581C350.99 117.443 347.243 118.892 340.818 117.275C333.581 115.453 332.733 116.051 333.625 122.337C335.736 137.251 369.578 129.314 377.167 112.126C381.756 101.726 391.779 99.0749 409.723 103.511C426.586 107.681 435.134 117.194 437.398 134.314C438.983 146.3 438.092 149.508 430.756 158.277C424.838 165.351 419.615 168.4 413.416 168.4C407.696 168.4 404.546 170.02 404.546 172.963C404.547 179.744 416.071 184.669 426.542 182.364C434.241 180.666 437.255 181.959 445.002 190.273C452.628 198.456 454.262 202.86 454.263 215.242C454.264 228.449 439.099 236.417 430.763 242.366C424.764 246.649 412.621 245.899 407.705 244.958C402.611 243.98 386.726 236.404 358.761 217.715C356.587 223.009 354.376 224.22 350.53 229.14C366.522 244.618 393.504 266.424 430.765 260.215C444.479 254.017 469.378 230.955 469.357 213.599C469.344 201.591 463.66 182.71 452.399 173.829C445.497 168.388 445.277 167.409 449.586 161.242C455.601 152.636 455.605 127.1 449.598 115.453C440.356 97.5424 411.915 82.2171 394.124 85.5625C383.787 87.5062 383.569 87.3193 381.58 74.8504C376.575 43.5052 331.666 26.6443 306.351 46.6076C295.567 55.1113 294.156 54.8964 289.684 44.0721C284.929 32.5688 261.638 22 241.04 22C227.36 22 225.173 23.1587 210.983 37.9171Z" fill="#03AA39"/>
<path fill-rule="evenodd" clip-rule="evenodd" d="M310.063 346.896C307.592 348.261 302.79 351.962 299.394 355.119L293.217 360.859V353.693C293.217 347.274 292.534 346.527 286.663 346.527C272.53 346.527 273.002 344.809 273.002 396.234V443.211H284.232H295.463L295.497 414.543C295.517 396.256 296.534 383.926 298.304 380.495C302.121 373.091 315.296 366.275 322.978 367.73C329.106 368.89 329.155 368.803 329.155 356.589V344.279L321.855 344.346C317.841 344.384 312.534 345.531 310.063 346.896ZM398.266 348.614C394.895 350.779 390.243 354.734 387.932 357.401C383.019 363.071 380.816 361.763 380.816 353.178C380.816 347.244 380.472 347.067 371.27 348.243C366.021 348.913 361.65 349.576 361.56 349.715C361.47 349.853 361.838 370.961 362.38 396.623L363.364 443.279H374.336H385.308L385.317 414.611C385.324 390.152 385.968 384.886 389.706 378.75C394.304 371.2 408.284 365.443 415.39 368.173C418.441 369.347 419 367.609 419 356.953V344.346L411.7 344.51C407.684 344.6 401.64 346.446 398.266 348.614Z" fill="#03AA39"/>
</svg>
